<svg width="90" height="90" viewBox="0 0 90 90" fill="none" xmlns="http://www.w3.org/2000/svg">
<path d="M71.9636 34.7455L75.1262 30.9333C76.617 29.135 76.1536 26.2718 74.0919 24.5519C73.4023 23.9764 72.6184 23.6191 71.8265 23.441C72.4513 22.5123 72.7573 21.4166 72.6537 20.2854C72.5346 18.9884 71.919 17.8149 70.92 16.9819C68.8606 15.2631 65.7859 15.5445 64.0684 17.6119L62.7587 19.1914C62.474 18.4129 62.0072 17.6907 61.3275 17.1234C60.3111 16.2754 59.0494 15.9192 57.8259 16.0178C57.5644 14.5856 56.6793 13.3077 55.376 12.5954C54.2358 11.9735 52.9203 11.8331 51.6736 12.2009C50.4276 12.5687 49.399 13.4022 48.7771 14.5467L47.7972 16.3502C47.3673 15.6419 46.7698 15.0241 45.9923 14.5995C43.6384 13.3152 40.676 14.1877 39.3929 16.5515L34.2854 25.9551C32.4695 25.5496 30.4986 25.8495 28.8291 26.9592C28.2407 27.349 27.8398 27.9471 27.6998 28.6408C27.5593 29.3346 27.6964 30.0411 28.0868 30.6311L30.0954 33.6712L29.9172 33.9984L26.0373 30.6189C23.2877 27.8339 18.7917 27.8113 16.0149 30.5684C15.5128 31.0655 15.2345 31.7303 15.2316 32.4386C15.2282 33.1468 15.4995 33.8134 15.9958 34.3157L18.8553 37.212C22.6745 41.0805 23.3594 42.2517 22.63 46.9747L21.7506 52.2139C21.4724 52.0701 21.1508 52.0347 20.8499 52.124C20.5387 52.2157 20.2767 52.4274 20.121 52.7134L14.1487 63.7098C13.9937 63.9958 13.9584 64.3311 14.0498 64.6432C14.1412 64.9553 14.3529 65.218 14.6375 65.3741L37.485 77.8509C37.6666 77.9495 37.8674 78 38.0699 78C38.1856 78 38.3024 77.9832 38.4158 77.9495C38.727 77.8579 38.9885 77.6456 39.1441 77.3596L39.5849 76.5475L40.7477 77.518C40.9768 77.7088 41.2533 77.8016 41.5292 77.8016C41.8798 77.8016 42.228 77.6514 42.4698 77.3596L50.4559 67.7332C50.6636 67.4832 50.7637 67.1613 50.7336 66.837C50.7041 66.5134 50.5473 66.2146 50.2986 66.0064L50.1892 65.9159L52.2238 63.4627C54.6887 63.555 57.0837 62.5004 58.6861 60.5687L74.2961 41.7523C75.8273 39.9059 75.5757 37.1534 73.7332 35.6162C73.2027 35.173 72.5941 34.8958 71.9636 34.7455V34.7455ZM50.9256 15.7196C51.5626 14.545 53.0354 14.1076 54.2063 14.7492C54.9832 15.1726 55.4529 16.001 55.4546 16.8821C55.1006 17.1281 54.7639 17.4059 54.4758 17.754L41.8052 33.0262L41.6409 32.8139L50.9256 15.7196ZM41.5414 17.725C42.1794 16.5486 43.6517 16.1135 44.8231 16.7533C45.9946 17.3943 46.429 18.8706 45.7904 20.0453L45.6972 20.2175L40.0032 30.7007L38.653 28.9575C38.0889 28.1043 37.3687 27.4169 36.5583 26.8989L41.5414 17.725ZM20.5942 35.4869L17.7342 32.59C17.6688 32.5244 17.6694 32.3771 17.7359 32.3121C18.6164 31.4374 19.7439 30.946 21.0246 30.9646C22.2649 30.971 23.4277 31.4611 24.3666 32.4072L29.4613 36.8495C29.7413 37.0937 30.1162 37.1952 30.4806 37.1308C30.8457 37.0647 31.1609 36.8367 31.3374 36.5107L31.6 36.0275C33.4142 39.0694 33.5073 40.588 32.1467 44.3394L30.2712 49.3083C29.7523 48.8982 29.002 48.969 28.5768 49.4812L24.8924 53.9222L24.0241 53.4483L25.0446 47.3656C25.9071 41.7859 24.871 39.8189 20.5942 35.4869V35.4869ZM37.5816 75.1101L16.8821 63.8061L21.6477 55.0319C21.7535 55.1827 21.882 55.3185 22.0503 55.4107L23.1564 56.0151L20.5902 59.1081C20.3825 59.3581 20.283 59.6806 20.3125 60.0043C20.342 60.3286 20.4988 60.6273 20.7481 60.835L37.669 74.9494L37.5816 75.1101ZM41.3725 74.8485L23.2524 59.7334L29.6251 52.0532C29.6997 52.2215 29.7992 52.3798 29.9467 52.5028L47.5473 67.1839C47.5849 67.2152 47.6317 67.2292 47.6722 67.2558L41.3725 74.8485ZM72.416 40.1837L56.8066 58.9996C55.5906 60.4661 53.7267 61.201 51.835 60.9742C51.4185 60.9208 51.013 61.0879 50.748 61.4069L48.3097 64.3468L32.2618 50.961L34.4393 45.1921C36.3645 39.8862 35.7287 37.7555 32.3694 32.6735L30.1254 29.276C30.074 29.1983 30.1029 29.0538 30.1804 29.0022C31.2136 28.3148 32.4527 28.0729 33.6675 28.3212C34.883 28.5683 35.9289 29.2748 36.667 30.3863L39.2245 33.6898C39.2268 33.6927 39.2286 33.695 39.2303 33.6979L40.8067 35.7346C41.034 36.0281 41.3817 36.2021 41.7519 36.2091C42.1042 36.1824 42.4756 36.0519 42.7128 35.767L56.3559 19.3219C56.769 18.8242 57.3503 18.5168 57.9942 18.4576C58.6439 18.3967 59.2663 18.5945 59.7627 19.0081C60.7866 19.8625 60.9272 21.3939 60.0773 22.4218L60.075 22.4242C60.075 22.4247 60.075 22.4253 60.0745 22.4259L53.0875 30.848C52.6553 31.3689 52.7259 32.1416 53.2448 32.5749C53.7637 33.0088 54.5343 32.9386 54.967 32.4165L61.9551 23.9938C61.9574 23.9915 61.958 23.9886 61.9598 23.9863L65.9473 19.1798C66.8006 18.1507 68.3301 18.0104 69.3546 18.8666C69.8515 19.2813 70.1581 19.8643 70.2171 20.5093C70.2761 21.1544 70.0806 21.7838 69.6676 22.282L67.7568 24.5855C67.7215 24.6244 67.6781 24.6522 67.644 24.6934C67.6238 24.7178 67.6191 24.7479 67.6006 24.7735L56.025 38.7277C55.5929 39.2487 55.6635 40.0213 56.183 40.4546C56.4115 40.6455 56.6886 40.7383 56.9645 40.7383C57.3145 40.7383 57.6627 40.588 57.9045 40.2963L69.6155 26.179C70.2675 25.5316 71.5621 25.6314 72.5265 26.4365C73.5342 27.2776 73.8633 28.6188 73.2449 29.3648L64.6029 39.7817L64.523 39.8775C64.5225 39.878 64.5225 39.8786 64.5213 39.8792L61.8585 43.0899C61.4264 43.6108 61.497 44.3835 62.0164 44.8162C62.245 45.0071 62.522 45.1005 62.798 45.1005C63.148 45.1005 63.4962 44.9502 63.738 44.6584L66.3962 41.4547C66.3962 41.4541 66.3974 41.4541 66.3979 41.4535L69.4946 37.748C70.1651 36.9411 71.3625 36.8292 72.1689 37.5009C72.9748 38.1732 73.0853 39.3769 72.416 40.1837V40.1837Z" fill="black"/>
<path d="M27.5873 65.1477C26.2284 65.2727 25.228 66.4757 25.353 67.8339C25.4779 69.1928 26.6796 70.1932 28.0384 70.0683C29.398 69.9433 30.3978 68.741 30.2728 67.3821C30.1478 66.0232 28.9455 65.0228 27.5873 65.1477Z" fill="black"/>
<rect x="1" y="1" width="88" height="88" rx="44" stroke="black" stroke-width="2"/>
</svg>
